<?xml version="1.0" encoding="UTF-8"?>
<svg version="1.1" xmlns="http://www.w3.org/2000/svg" width="512" height="512">
<path d="M0 0 C0.98339355 0.07831055 1.96678711 0.15662109 2.97998047 0.23730469 C3.88248535 0.32141602 4.78499023 0.40552734 5.71484375 0.4921875 C6.50882568 0.56550293 7.30280762 0.63881836 8.12084961 0.71435547 C10.0625 1.125 10.0625 1.125 12.0625 3.125 C11.43496826 3.30039307 10.80743652 3.47578613 10.16088867 3.65649414 C-23.23026354 13.04518955 -54.56341035 25.29652334 -81.9375 47.125 C-83.28328125 48.18267578 -83.28328125 48.18267578 -84.65625 49.26171875 C-121.56757453 78.80138508 -145.55798233 117.5182612 -153.9375 164.125 C-154.07027344 164.85332031 -154.20304687 165.58164063 -154.33984375 166.33203125 C-162.30693127 212.43371744 -150.60522582 262.80800335 -124.0859375 301.171875 C-93.53413774 343.16671249 -50.36097676 372.26446018 1.41308594 380.72998047 C55.39405515 388.77837783 108.54071808 372.86621745 152.07666016 340.63378906 C158.97400138 335.41614717 165.66435711 329.94691263 172.0625 324.125 C172.3925 324.785 172.7225 325.445 173.0625 326.125 C171.9968268 328.49923487 170.87745401 330.72602899 169.625 333 C169.25810059 333.67401855 168.89120117 334.34803711 168.51318359 335.04248047 C159.73292965 350.93252534 148.59164945 365.0526452 136.0625 378.125 C135.50965332 378.71039551 134.95680664 379.29579102 134.38720703 379.89892578 C125.03821509 389.76196949 115.11949551 398.23355789 104.0625 406.125 C103.44439453 406.57182129 102.82628906 407.01864258 102.18945312 407.47900391 C56.07752366 440.56093376 -4.46924395 453.9266163 -60.4375 445.5 C-94.98704743 439.76836094 -128.60028781 425.80171363 -156.9375 405.125 C-157.50114258 404.71540039 -158.06478516 404.30580078 -158.64550781 403.88378906 C-165.60188998 398.78297306 -172.13054607 393.30553021 -178.44921875 387.42578125 C-180.60929288 385.42847565 -182.81297945 383.51956662 -185.0625 381.625 C-222.66289267 348.65819107 -243.97554757 295.0374737 -247.9375 246.125 C-248.2782415 239.77439587 -248.27830358 233.42041452 -248.25 227.0625 C-248.24817719 226.20882843 -248.24635437 225.35515686 -248.24447632 224.47561646 C-248.19558346 210.83387125 -247.53351134 197.54964919 -244.9375 184.125 C-244.68806641 182.7932373 -244.68806641 182.7932373 -244.43359375 181.43457031 C-238.58074804 151.03228843 -227.16086168 121.88719637 -209.9375 96.125 C-209.5161377 95.49416504 -209.09477539 94.86333008 -208.66064453 94.21337891 C-194.6986773 73.55664566 -177.25066833 54.64528382 -156.9375 40.125 C-156.38126953 39.71910645 -155.82503906 39.31321289 -155.25195312 38.89501953 C-139.76340049 27.67779456 -122.05658954 18.26326932 -103.9375 12.125 C-103.10847168 11.84317871 -102.27944336 11.56135742 -101.42529297 11.27099609 C-68.41082212 0.2465735 -34.62703335 -2.8278107 0 0 Z " fill="#000000" transform="translate(291.9375,32.875)"/>
<path d="M0 0 C2.34770643 3.52155964 2.37669614 5.50771843 2.625 9.6875 C2.73714844 11.45673828 2.73714844 11.45673828 2.8515625 13.26171875 C2.90054688 14.16535156 2.94953125 15.06898438 3 16 C3.90878906 16.29390625 3.90878906 16.29390625 4.8359375 16.59375 C16.509519 20.76032063 24.4782812 27.87987186 30 39 C31.23102665 42.29299628 32.21950187 45.57324157 33 49 C34.19625 49.0825 35.3925 49.165 36.625 49.25 C40.94952387 49.80874379 43.64591123 51.11392361 47 54 C50.53373701 58.94723181 50.95597956 64.11844957 50 70 C45.74263167 80.70964656 35.3472743 85.72067406 25.6875 90.75 C23.52311643 91.88754198 21.36027381 93.02802229 19.19921875 94.171875 C18.24877686 94.6678418 17.29833496 95.16380859 16.3190918 95.67480469 C13.90548858 96.91909982 13.90548858 96.91909982 12 99 C11.98311758 101.98411631 11.98311758 101.98411631 12.375 105.5 C14.46952699 131.21439501 12.11616559 153.87884303 -4.765625 174.42578125 C-7 177 -7 177 -8.60766602 178.24609375 C-10.73058308 180.92030666 -10.43814749 183.26715485 -10.51171875 186.63671875 C-10.54716797 187.93544922 -10.58261719 189.23417969 -10.61914062 190.57226562 C-10.6422405 191.94400517 -10.6650229 193.3157501 -10.6875 194.6875 C-10.72067542 196.07099607 -10.75516531 197.45446129 -10.79101562 198.83789062 C-10.87363241 202.22517883 -10.94274058 205.61220357 -11 209 C-18.61856585 210.75079593 -26.04847754 212.41411848 -33.875 212.6875 C-34.57496094 212.72166016 -35.27492188 212.75582031 -35.99609375 212.79101562 C-37.66360106 212.87096461 -39.33175994 212.93717018 -41 213 C-40.70996094 212.07380859 -40.70996094 212.07380859 -40.4140625 211.12890625 C-36.44042164 198.2047377 -32.99753787 184.93816925 -39 172 C-45.64052512 161.25847875 -54.34933532 156.30644816 -66.484375 153.40625 C-69.22394792 152.9638345 -71.85040125 152.79586114 -74.625 152.75 C-75.56601562 152.72421875 -76.50703125 152.6984375 -77.4765625 152.671875 C-80.04069503 152.78677138 -80.04069503 152.78677138 -81.78125 154.3984375 C-83.28615457 156.37603645 -83.85310991 157.50286848 -84 160 C-82.23136411 163.69759178 -82.23136411 163.69759178 -79 166 C-76.98217387 166.29239661 -74.96062012 166.55931421 -72.9375 166.8125 C-64.0598571 168.16472375 -57.8089927 170.18822854 -52.09375 177.31640625 C-49.01506404 182.05538357 -49.4211301 187.59297349 -50 193 C-51.5864489 199.74457511 -53.62987601 207.58550763 -58 213 C-83.1232615 218.87497807 -118.30263932 201.16451669 -139 189 C-151.18751526 181.36828693 -172.26383069 168.06284323 -178.046875 154.5546875 C-177.94120533 148.79569022 -172.76466138 144.51369397 -169.125 140.4375 C-164.0371845 134.53012659 -160.81910584 128.28433293 -158 121 C-157.54625 119.845 -157.0925 118.69 -156.625 117.5 C-155.19378656 109.48520474 -154.61391397 101.10848425 -159 94 C-162.89528995 90.217617 -165.99743565 89.34971586 -171.3125 88.5625 C-178.8590151 87.26229299 -184.3708249 85.50556679 -189.0625 79.25 C-190.321753 74.8845896 -190.42308153 71.34119816 -189 67 C-186.05145199 63.54804135 -184.03024225 62.24802128 -179.625 61.1875 C-178.08531707 61.08740589 -176.54258708 61.03267204 -175 61 C-173.21142578 60.94199219 -173.21142578 60.94199219 -171.38671875 60.8828125 C-156.72764186 60.55347549 -141.38988329 61.53447556 -129.625 71.3125 C-123.1045521 77.5894457 -118.63286446 84.28057242 -116 93 C-116 93.99 -116 94.98 -116 96 C-115.00742188 95.41992188 -114.01484375 94.83984375 -112.9921875 94.2421875 C-95.84165797 84.32883255 -77.1832405 75.48902125 -57 75 C-56.89558594 74.02675781 -56.79117188 73.05351562 -56.68359375 72.05078125 C-53.33411911 48.90631783 -37.05696276 22.27431288 -18.5625 8.13671875 C-5.87867647 -0.97977941 -5.87867647 -0.97977941 0 0 Z " fill="#000000" transform="translate(371,188)"/>
</svg>
